<svg width="1280" height="223" viewBox="0 0 1280 223" fill="none" xmlns="http://www.w3.org/2000/svg" preserveAspectRatio = "xMinYMid">
<mask id="mask0_27_198" style="mask-type:alpha" maskUnits="userSpaceOnUse" x="0" y="3" width="1280" height="216">
<!--left side-->
<path d="M119.594 75.4607C119.594 71.1533 116.009 67.5528 111.451 67.5528C106.893 67.5528 103.308 71.1533 103.308 75.4607C103.308 79.7682 106.893 83.3687 111.451 83.3687C116.009 83.3687 119.594 79.7682 119.594 75.4607Z" stroke="white" stroke-width="6"/>
<path d="M106.316 66.8668L108.449 68.9761L104.23 73.2426L102.097 71.1332L106.316 66.8668ZM78.9231 44V41H80.1558L81.0324 41.8668L78.9231 44ZM102.097 71.1332L76.8137 46.1332L81.0324 41.8668L106.316 66.8668L102.097 71.1332ZM78.9231 47H-9.15527e-05V41H78.9231V47Z" fill="white"/>
<path d="M53 71L56 71L56 65L53 65L53 71ZM1 71L53 71L53 65L1 65L1 71Z" fill="white"/>
<path d="M72.0855 67.908C72.0855 63.6005 68.5003 60 63.9425 60C59.3846 60 55.7995 63.6005 55.7995 67.908C55.7995 72.2154 59.3846 75.8159 63.9425 75.8159C68.5003 75.8159 72.0855 72.2154 72.0855 67.908Z" stroke="white" stroke-width="6"/>
<path d="M135 121L138 121L138 115L135 115L135 121ZM2.62268e-07 121L135 121L135 115L-2.62268e-07 115L2.62268e-07 121Z" fill="white"/>
<path d="M154.085 117.908C154.085 113.601 150.5 110 145.942 110C141.385 110 137.799 113.601 137.799 117.908C137.799 122.215 141.385 125.816 145.942 125.816C150.5 125.816 154.085 122.215 154.085 117.908Z" stroke="white" stroke-width="6"/>
<path d="M209 110.908C209 115.215 205.415 118.816 200.857 118.816C196.299 118.816 192.714 115.215 192.714 110.908C192.714 106.6 196.299 103 200.857 103C205.415 103 209 106.6 209 110.908Z" stroke="white" stroke-width="6"/>
<path d="M195.369 119.814L197.513 117.716L193.316 113.428L191.172 115.527L195.369 119.814ZM153.739 156.369V159.369H154.963L155.837 158.512L153.739 156.369ZM191.172 115.527L151.64 154.225L155.837 158.512L195.369 119.814L191.172 115.527ZM153.739 153.369H0.143158V159.369H153.739V153.369Z" fill="white"/>
<path d="M264 181L267 181L267 175L264 175L264 181ZM2.62268e-07 181L264 181L264 175L-2.62268e-07 175L2.62268e-07 181Z" fill="white"/>
<path d="M283.866 177.908C283.866 173.601 280.281 170 275.723 170C271.165 170 267.58 173.601 267.58 177.908C267.58 182.215 271.165 185.816 275.723 185.816C280.281 185.816 283.866 182.215 283.866 177.908Z" stroke="white" stroke-width="6"/>
<path d="M172 203L175 203L175 197L172 197L172 203ZM-2.62268e-07 203L172 203L172 197L2.62268e-07 197L-2.62268e-07 203Z" fill="white"/>
<path d="M191.866 199.908C191.866 195.601 188.281 192 183.723 192C179.165 192 175.58 195.601 175.58 199.908C175.58 204.215 179.165 207.816 183.723 207.816C188.281 207.816 191.866 204.215 191.866 199.908Z" stroke="white" stroke-width="6"/>
<path d="M276.496 127C279.726 127 282.37 124.39 282.37 121.2C282.37 118.01 279.726 115.4 276.496 115.4C273.265 115.4 270.622 118.01 270.622 121.2C270.622 124.39 273.265 127 276.496 127ZM258.874 121.78C258.874 111.253 266.657 103.8 276.496 103.8C286.334 103.8 294.117 111.253 294.117 121.78C294.117 128.566 288.39 137.556 276.496 148.286C264.601 137.556 258.874 128.566 258.874 121.78ZM276.496 98C264.16 98 253 107.338 253 121.78C253 131.408 260.842 142.805 276.496 156C292.15 142.805 299.991 131.408 299.991 121.78C299.991 107.338 288.831 98 276.496 98Z" fill="white"/>
</mask>
<g mask="url(#mask0_27_198)">
<rect width="1280" height="223" fill="url(#paint0_linear_27_198)"/>
</g>
<defs>
<linearGradient id="paint0_linear_27_198" x1="2.62124e-05" y1="111.5" x2="25.0675" y2="331.262" gradientUnits="userSpaceOnUse">
<stop stop-color="#1BDEFC"/>
<stop offset="1" stop-color="#F810B4"/>
</linearGradient>
</defs>
</svg>
