<svg width="1280" height="223" viewBox="0 0 1280 223" fill="none" xmlns="http://www.w3.org/2000/svg" preserveAspectRatio = "xMaxYMid">
<mask id="mask0_27_198" style="mask-type:alpha" maskUnits="userSpaceOnUse" x="0" y="3" width="1280" height="216">
<!--right side-->
<path d="M1166.27 85H1163.27V91H1166.27V85ZM1279.66 85L1166.27 85V91L1279.66 91V85Z" fill="white"/>
<path d="M1146.79 87.908C1146.79 83.6005 1150.38 80 1154.94 80C1159.49 80 1163.08 83.6005 1163.08 87.908C1163.08 92.2154 1159.49 95.8159 1154.94 95.8159C1150.38 95.8159 1146.79 92.2154 1146.79 87.908Z" stroke="white" stroke-width="6"/>
<path d="M1100.82 81.9079C1100.82 86.2154 1104.41 89.8159 1108.97 89.8159C1113.52 89.8159 1117.11 86.2154 1117.11 81.9079C1117.11 77.6005 1113.52 74 1108.97 74C1104.41 74 1100.82 77.6005 1100.82 81.9079Z" stroke="white" stroke-width="6"/>
<path d="M1114.1 90.5019L1111.97 88.3925L1116.19 84.1261L1118.32 86.2354L1114.1 90.5019ZM1141.49 113.369V116.369H1140.26L1139.38 115.502L1141.49 113.369ZM1118.32 86.2354L1143.6 111.235L1139.38 115.502L1114.1 90.5019L1118.32 86.2354ZM1141.49 110.369H1279.66V116.369H1141.49V110.369Z" fill="white"/>
<path d="M1061.05 138H1058.05V144H1061.05V138ZM1279.66 138L1061.05 138V144L1279.66 144V138Z" fill="white"/>
<path d="M1041.57 140.908C1041.57 136.601 1045.16 133 1049.72 133C1054.27 133 1057.86 136.601 1057.86 140.908C1057.86 145.215 1054.27 148.816 1049.72 148.816C1045.16 148.816 1041.57 145.215 1041.57 140.908Z" stroke="white" stroke-width="6"/>
<path d="M981.302 207.461C981.302 203.153 984.887 199.553 989.445 199.553C994.003 199.553 997.588 203.153 997.588 207.461C997.588 211.768 994.003 215.369 989.445 215.369C984.887 215.369 981.302 211.768 981.302 207.461Z" stroke="white" stroke-width="6"/>
<path d="M994.932 198.554L992.788 200.653L996.986 204.94L999.129 202.842L994.932 198.554ZM1036.56 162V159H1035.34L1034.46 159.856L1036.56 162ZM999.129 202.842L1038.66 164.144L1034.46 159.856L994.932 198.554L999.129 202.842ZM1036.56 165H1279.66V159H1036.56V165Z" fill="white"/>
<path d="M1118.25 183H1115.25V189H1118.25V183ZM1279.66 183L1118.25 183V189L1279.66 189V183Z" fill="white"/>
<path d="M1098.78 185.908C1098.78 181.601 1102.36 178 1106.92 178C1111.48 178 1115.07 181.601 1115.07 185.908C1115.07 190.215 1111.48 193.816 1106.92 193.816C1102.36 193.816 1098.78 190.215 1098.78 185.908Z" stroke="white" stroke-width="6"/>
<path d="M1106 32C1102.76 32 1100.12 29.39 1100.12 26.2C1100.12 23.01 1102.76 20.4 1106 20.4C1109.23 20.4 1111.87 23.01 1111.87 26.2C1111.87 29.39 1109.23 32 1106 32ZM1123.62 26.78C1123.62 16.253 1115.83 8.8 1106 8.8C1096.16 8.8 1088.37 16.253 1088.37 26.78C1088.37 33.566 1094.1 42.556 1106 53.286C1117.89 42.556 1123.62 33.566 1123.62 26.78ZM1106 3C1118.33 3 1129.49 12.338 1129.49 26.78C1129.49 36.408 1121.65 47.805 1106 61C1090.34 47.805 1082.5 36.408 1082.5 26.78C1082.5 12.338 1093.66 3 1106 3Z" fill="white"/>
<path d="M987.496 159C984.265 159 981.622 156.39 981.622 153.2C981.622 150.01 984.265 147.4 987.496 147.4C990.726 147.4 993.37 150.01 993.37 153.2C993.37 156.39 990.726 159 987.496 159ZM1005.12 153.78C1005.12 143.253 997.334 135.8 987.496 135.8C977.657 135.8 969.874 143.253 969.874 153.78C969.874 160.566 975.601 169.556 987.496 180.286C999.39 169.556 1005.12 160.566 1005.12 153.78ZM987.496 130C999.831 130 1010.99 139.338 1010.99 153.78C1010.99 163.408 1003.15 174.805 987.496 188C971.842 174.805 964 163.408 964 153.78C964 139.338 975.16 130 987.496 130Z" fill="white"/>
</mask>
<g mask="url(#mask0_27_198)">
<rect width="1280" height="223" fill="url(#paint0_linear_27_198)"/>
</g>
<defs>
<linearGradient id="paint0_linear_27_198" x1="2.62124e-05" y1="111.5" x2="25.0675" y2="331.262" gradientUnits="userSpaceOnUse">
<stop stop-color="#1BDEFC"/>
<stop offset="1" stop-color="#F810B4"/>
</linearGradient>
</defs>
</svg>