<svg width="450" height="450" viewBox="0 0 450 450" fill="none" xmlns="http://www.w3.org/2000/svg">
<mask id="mask0_59_111" style="mask-type:alpha" maskUnits="userSpaceOnUse" x="40" y="27" width="393" height="402">
<path d="M198.597 208.333L144.777 155.216L42.9767 279.676L81.0389 361.777M198.597 208.333L264.924 211.697M198.597 208.333L81.0389 361.777M264.924 211.697L310.232 281.533M264.924 211.697L175.723 344.496M310.232 281.533L390.768 283.654L311.476 425.377L219.168 425.427M310.232 281.533L219.168 425.427M219.168 425.427L175.723 344.496M175.723 344.496L81.0389 361.777" stroke="black" stroke-width="4" stroke-linejoin="miter"/>
<path d="M238.721 424C240.336 417.89 245.275 406.926 253.492 403.938C257.717 402.401 264.274 407.028 268.135 403.804C270.509 401.822 271.75 401.741 274.719 402.138C280.799 402.952 284.932 400.274 287.631 394.739C290.902 388.031 286.287 379.192 285.956 372.238C285.852 370.049 287.584 365.21 285.728 363.749C282.872 361.502 278.592 360.941 275.12 360.358C274.614 360.273 278.572 358.188 279.625 357.493C282.459 355.623 286.956 353.847 288.39 350.56C290.885 344.844 291.782 340.359 290.086 334.079C288.768 329.198 295.915 330.768 296.711 334.566C297.907 340.278 295.424 350.344 298.685 355.285C299.794 356.967 301.482 358.327 303.581 358.343C309.048 358.386 316.184 356.63 321.474 355.09C325.827 353.823 329.937 351.636 334.108 349.88C335.371 349.348 337.652 348.78 338.59 347.682C341.57 344.193 345.747 341.67 349.236 338.606C352.154 336.043 355.552 335.241 359.264 335.864" stroke="#00010E" stroke-width="4" stroke-linecap="square" stroke-dasharray="20 5 18 10"/>
<path d="M116.664 196.29C120.469 197.372 121.788 201.597 121.091 205.041C120.43 208.305 117.004 208.863 116.208 211.574C115.016 215.626 120.687 216.649 123.508 215.785C125.858 215.065 125.971 213.235 126.162 216.886C126.341 220.31 124.975 228.778 122.25 230.643C120.176 232.062 118.786 230.459 118.316 233.258C117.537 237.894 122.135 237.753 125.566 240.373C130.786 244.36 134.457 250.004 135.636 256.479C136.538 261.432 137.649 266.195 138.822 271.101C140.421 277.785 143.882 283.46 147.527 289.271C148.745 291.212 151.437 295.09 154.349 293.947C159.858 291.785 156.935 285.039 155.138 281.449C147.358 265.906 146.264 249.994 156.142 235.172C158.91 231.018 169.033 234.178 172.265 234.968C178.391 236.466 179.442 244.34 182.444 249.127C187.669 257.457 199.15 235.748 203.561 243.465C205.957 247.658 209.517 249.74 212.607 253.102C216.33 257.152 217.202 266.379 217.293 271.579C217.371 276.069 221.506 271.55 224.274 271.405C228.419 271.189 227.563 283.894 227.329 286.588C226.699 293.847 224.916 300.735 223.708 307.929C222.932 312.547 223.837 315.988 227.748 318.981C230.971 321.448 231.868 325.191 231.264 329.254C231.208 329.628 230.415 332.459 231.177 332.37C235.426 331.874 239.983 329.124 243.4 326.779C246.407 324.717 250.224 322.406 250.623 318.456C251.154 313.191 249.019 309.209 246.911 304.583C244.357 298.981 241.698 292.447 244.432 286.403C247.598 279.403 254.72 273.863 262.623 275.19C267.669 276.038 272.493 277.019 277.425 278.296C281.64 279.386 283.541 278.38 287.323 281.997C290.793 285.315 293.751 288.286 297.929 290.585C299.738 291.581 307.558 280.751 308.614 278.33" stroke="#00010E" stroke-width="4" stroke-linecap="square" stroke-dasharray="20 2 50 15"/>
<path d="M59.367 311.152C60.1651 308.834 62.4359 306.77 63.9073 304.926C67.734 300.131 71.4054 295.213 75.1623 290.364C80.5798 283.371 85.9729 278.121 95.5718 279.378C101.712 280.182 102.176 287.188 107.646 288.978C108.689 289.319 113.606 288.116 113.678 288.171C115.587 289.625 115.277 300.515 115.595 302.543C116.471 308.141 117.45 313.756 119.327 319.113C120.401 322.178 122.14 325.371 124.781 327.382C127.85 329.72 131.239 331.883 133.978 334.606C136.901 337.512 142.465 342.575 143.133 346.845" stroke="#00010E" stroke-width="4" stroke-linecap="square" stroke-dasharray="20 12 30 5"/>
<path d="M146.062 197.313C146.104 198.671 147.746 201.981 148.592 203.169C150.113 205.303 152.228 207.352 154.334 208.925C162.668 215.149 170.927 220.257 180.302 225.072C184.098 227.022 189.846 229.649 194.177 229.533C196.268 229.477 198.556 228.859 200.583 228.373C208.222 226.54 215.835 225.77 223.645 226.958C230.797 228.046 228.611 234.163 230.626 239.489C231.854 242.735 236.209 239.185 237.637 238.324C244.474 234.206 248.991 242.577 248.075 248.029C247.658 250.514 245.662 252.688 244.769 255.034C243.896 257.327 243.758 259.758 242.683 261.96C241.682 264.008 240.591 265.569 239.556 267.469C236.496 273.092 234.214 277.544 234.356 284.059C234.414 286.749 235.012 288.784 235.187 291.369C235.237 292.114 235.857 295.229 236.263 295.525" stroke="#00010E" stroke-width="4" stroke-linecap="square" stroke-dasharray="9 9"/>
<path d="M246.776 255.762C248.444 252.883 252.983 258.351 253.902 259.195C257.253 262.272 259.891 263.715 264.34 264.462C268.827 265.216 275.528 263.191 278.676 259.842" stroke="#00010E" stroke-width="4" stroke-linecap="square" stroke-dasharray="9 9"/>
<path d="M111.422 335.25C168.045 300.686 260.548 345.782 278.038 408.353" stroke="black" stroke-width="4" stroke-dasharray="6 6"/>
<path d="M333.06 371.829C322.98 370.135 315.921 379.999 313.163 388.778C312.053 392.31 311.105 397.325 314.364 399.925C317.301 402.27 320.179 399.986 321.575 396.843C324.45 390.374 320.579 385.643 314.624 382.835C304.243 377.94 298.428 394.884 298.675 402.847C298.91 410.435 304.872 417.29 300.068 423.878" stroke="#00010E" stroke-width="4" stroke-linecap="square" stroke-dasharray="9 9"/>
<path d="M141.437 249.462C137.598 248.817 134.55 250.657 131.29 252.473C122.565 257.334 114.214 264.415 110.466 273.939C106.974 282.813 104.001 291.873 102.424 301.258" stroke="#00010E" stroke-width="4" stroke-linecap="square" stroke-dasharray="9 9"/>
<path d="M97.8672 310.344C94.6308 319.313 80.5364 315.01 74.3559 313.972C71.8581 313.552 69.0095 312.689 66.4468 312.685C65.1233 312.684 64.1849 314.019 63.0934 314.353" stroke="#00010E" stroke-width="4" stroke-linecap="square" stroke-dasharray="9 9"/>
<path d="M145.126 189.946C146.05 184.444 147.004 170.507 154.291 169.366" stroke="#00010E" stroke-width="4" stroke-linecap="square" stroke-dasharray="9 9"/>
<path d="M238.109 305.264C237.526 304.319 234.194 303.776 233.11 303.976C231.628 304.249 231.462 310.738 231.682 311.811C232.181 314.244 237.462 315.885 239.306 314.325C240.277 313.504 240.631 310.018 239.986 309.112" stroke="#00010E" stroke-width="4" stroke-linecap="square"/>
<path d="M112.892 329.649C111.053 329.34 108.817 329.537 107.363 330.851C104.256 333.663 105.865 341.59 110.623 341.492C114.919 341.404 119.189 336.705 115.343 333.089" stroke="#00010E" stroke-width="4" stroke-linecap="square"/>
<path d="M281.424 407.923C278.412 407.417 275.798 407.013 272.832 407.993C268.911 409.289 270.431 412.84 273.434 414.094C278.192 416.082 283.578 417.153 285.773 411.737C286.58 409.747 284.384 409.757 283.304 408.743" stroke="#00010E" stroke-width="4" stroke-linecap="square"/>
<path d="M151.595 201.405C144.372 200.192 143.905 213.234 150.433 214.331C159.135 215.793 158.964 203.652 151.43 202.386" stroke="#00010E" stroke-width="4" stroke-linecap="square"/>
<path d="M234.5 186.5C232.919 186.5 231.625 185.195 231.625 183.6C231.625 182.005 232.919 180.7 234.5 180.7C236.081 180.7 237.375 182.005 237.375 183.6C237.375 185.195 236.081 186.5 234.5 186.5ZM243.125 183.89C243.125 178.626 239.316 174.9 234.5 174.9C229.684 174.9 225.875 178.626 225.875 183.89C225.875 187.283 228.678 191.778 234.5 197.143C240.322 191.778 243.125 187.283 243.125 183.89ZM234.5 172C240.538 172 246 176.669 246 183.89C246 188.704 242.162 194.403 234.5 201C226.838 194.403 223 188.704 223 183.89C223 176.669 228.463 172 234.5 172Z" fill="#00010E"/>
<path d="M94.5001 260.342C92.9188 260.342 91.6251 259.037 91.6251 257.442C91.6251 255.847 92.9188 254.542 94.5001 254.542C96.0813 254.542 97.3751 255.847 97.3751 257.442C97.3751 259.037 96.0813 260.342 94.5001 260.342ZM103.125 257.732C103.125 252.468 99.3157 248.742 94.5001 248.742C89.6844 248.742 85.8751 252.468 85.8751 257.732C85.8751 261.125 88.6782 265.62 94.5001 270.985C100.322 265.62 103.125 261.125 103.125 257.732ZM94.5001 245.842C100.538 245.842 106 250.511 106 257.732C106 262.546 102.162 268.244 94.5001 274.842C86.8382 268.244 83.0001 262.546 83.0001 257.732C83.0001 250.511 88.4626 245.842 94.5001 245.842Z" fill="#00010E"/>
<path d="M317 333.842C315.35 333.842 314 332.492 314 330.842C314 329.192 315.35 327.842 317 327.842C318.65 327.842 320 329.192 320 330.842C320 332.492 318.65 333.842 317 333.842ZM326 331.142C326 325.697 322.025 321.842 317 321.842C311.975 321.842 308 325.697 308 331.142C308 334.652 310.925 339.302 317 344.852C323.075 339.302 326 334.652 326 331.142ZM317 318.842C323.3 318.842 329 323.672 329 331.142C329 336.122 324.995 342.017 317 348.842C309.005 342.017 305 336.122 305 331.142C305 323.672 310.7 318.842 317 318.842Z" fill="#00010E"/>
<circle cx="85" cy="143" r="29" stroke="black" stroke-width="4"/>
<path d="M79 114C69.5 126.5 73 156 92.5 170.5" stroke="black" stroke-width="4"/>
<path d="M55.5 138.5C60.1667 143.833 86.5 147 102 120.5" stroke="black" stroke-width="4"/>
<path d="M65.5 166C68 160 80 152 111.5 157" stroke="black" stroke-width="4"/>
<path d="M57.4612 152.481C73 152.481 81.5 152.481 113 135" stroke="black" stroke-width="4"/>
<path d="M203 69.1878C195.875 69.1878 191 65.0563 191 60.5493C195.625 62.4272 206.375 63.9296 206.375 54.1643H219.125M203 69.1878H206.375M203 69.1878V95.4789M233 69.1878H223.438M219.125 42.5211C215.875 43.1471 207.275 41.0188 206.375 35.0094C210 36.1362 219.125 36.8122 219.125 29H233M219.125 42.5211V54.1643M219.125 42.5211H233M219.125 42.5211C220.917 42.0203 219.125 47.3286 219.125 42.5211ZM219.125 54.1643H226.063M206.375 69.1878V84.5869M206.375 69.1878H208.5H213.875M206.375 95.4789H233M206.375 95.4789V89.8451M206.375 95.4789H203M206.375 89.8451H213.875M206.375 89.8451V84.5869M213.875 69.1878V84.5869M213.875 69.1878H216.125H219.781H223.438M213.875 89.8451H223.438M213.875 89.8451V84.5869M223.438 69.1878V84.5869M223.438 89.8451V84.5869M223.438 89.8451H233M233 54.1643H226.063M197 101.864V95.4789H203M197 101.864H191V109H233M197 101.864H208.5M206.375 84.5869C207.125 85.964 209.675 87.892 213.875 84.5869M213.875 84.5869C218.075 88.1925 222 86.0892 223.438 84.5869M223.438 84.5869C225.625 85.964 230.6 87.892 233 84.5869M226.063 54.1643V48.5305H233M213.875 101.864H219.125" stroke="black" stroke-width="4"/>
<path d="M263 69.1878C270.125 69.1878 275 65.0563 275 60.5493C270.375 62.4272 259.625 63.9296 259.625 54.1643H246.875M263 69.1878H259.625M263 69.1878V95.4789M246.875 42.5211C250.125 43.1471 258.725 41.0188 259.625 35.0094C256 36.1362 246.875 36.8122 246.875 29H233M246.875 42.5211V54.1643M246.875 42.5211H233M246.875 42.5211C245.083 42.0203 246.875 47.3286 246.875 42.5211ZM246.875 54.1643H239.938M259.625 69.1878V84.5869M259.625 69.1878H257.5H252.125M259.625 95.4789H233M259.625 95.4789V89.8451M259.625 95.4789H263M259.625 89.8451H252.125M259.625 89.8451V84.5869M252.125 69.1878V84.5869M252.125 69.1878H249.875H246.219H242.563M252.125 89.8451H242.563M252.125 89.8451V84.5869M242.563 69.1878H233V89.8451H242.563M242.563 69.1878V84.5869M242.563 89.8451V84.5869M233 54.1643H239.938M269 101.864V95.4789H263M269 101.864H275V109H233M269 101.864H257.5M259.625 84.5869C258.875 85.964 256.325 87.892 252.125 84.5869M252.125 84.5869C247.925 88.1925 244 86.0892 242.563 84.5869M242.563 84.5869C240.375 85.964 235.4 87.892 233 84.5869M239.938 54.1643V48.5305H233M252.125 102L233 101.864" stroke="black" stroke-width="4" transform = "translate(-0.5, 0)"/>
<path d="M305 214.5L313.5 195.02M305 214.5H325M305 214.5L317.5 204.5L328 202L334.5 208.42M407.5 214.5L397 185L392.5 188.5L384.5 178M407.5 214.5L401 206.5H389.5L384.5 211L376.5 202L367 199.442M407.5 214.5H325M337.5 171.5L330 190.5L319.5 182.5L313.5 195.02M337.5 171.5L346 150L356.5 170.682M337.5 171.5L342 169L343.5 170.25L346 168L349.5 175.5L352 171.5L356.5 174V170.682M356.5 170.682L363.5 188.5L370 178.5M313.5 195.02L319.5 198.5L321.5 195.02L325 196.5L328 190.5M370 178.5L376.5 168L384.5 178M370 178.5L372.5 182.5H378.5L382 185L384.5 178M325 214.5L334.5 208.42M334.5 208.42L337.5 206.5L342 202L349.5 195.02L362 198.127M362 198.127L363.5 198.5L367 199.442M362 198.127L363.5 195.02H360.5L364.5 196.5H365.5L367 199.442M369 198.127L358.5 196.5" stroke="black" stroke-width="4"/>
<path d="M342.5 187L338 191H341.75M342.5 187L345.5 191H341.75M342.5 187V194M346.5 197.5V194.25M346.5 191V194.25M346.5 191L344 194.562M346.5 191L348 192.781M352 195.5V190.25M352 185L349.5 188.5H353.5L352 185ZM352 185V190.25M355.5 195.5V193.25M390 206V200M392.5 206V203.5M394.5 206V202.5M399 206V201L402 203.5L400 203.7M385.5 208.5V202.5L383 206H386.5V204M332 206V200M335 207.5V202.5M341.75 191L336.5 195.5L341.5 194.875M346.5 194.25L344 194.562M342.5 194V201H339L341 199M342.5 194L336.5 199H341M341.5 194.875L345.5 199H341M341.5 194.875L344 194.562M349.5 194.562L348 192.781M350.5 189.5L348 192.781M355.5 193.25V191L358 193.25H353.5L353.625 192.5M355.5 193.25L353.75 191.75M352 190.25L353.75 191.75M353.75 191.75L353.625 192.5M332 196.5V195.5L329.5 199H335L332 196.5ZM332 196.5V200M335 202.5V201L338 203.5M335 202.5H328.5L332 200M333.5 203.5L337 204M355.5 189.5L353.625 192.5M391.5 198L388.5 204L392.5 203.5M392.5 203.5V202.25M390 200V195.5L386.5 201H392.5V202.25M390 200L393.5 199L392.5 202.25M394.5 202.5V202V198L397 202L394.5 202.5ZM400 203.7L397 204L399 200L400 203.7Z" stroke="black" stroke-width="4" stroke-linecap="round" stroke-linejoin="bevel"/>
<path d="M180 121H206.574M227.963 121H285M202.037 130.778H255.833M222.13 143H244.167" stroke="black" stroke-width="3" stroke-linecap="square"/>
<path d="M46.5 182H83M93 182H102M68.5 190.5H95.5" stroke="black" stroke-width="3" stroke-linecap="square"/>
<path d="M291 228H339M359 228H379.5M391 228H431M322.5 236.5H353M374 236.5H404M339 245.5H379.5M353 253.5H368" stroke="black" stroke-width="3" stroke-linecap="square"/>
</mask>
<g mask="url(#mask0_59_111)">
<rect x="2" y="1" width="450" height="450" fill="url(#paint0_linear_59_111)"/>
</g>
<defs>
<linearGradient id="paint0_linear_59_111" x1="119.5" y1="82.5" x2="364" y2="421.5" gradientUnits="userSpaceOnUse">
<stop stop-color="#1BDEFC"/>
<stop offset="1" stop-color="#F810B4"/>
</linearGradient>
</defs>
</svg>
