<svg width="700" height="749" viewBox="0 0 700 749" fill="none" preserveAspectRatio="xMaxYMid" xmlns="http://www.w3.org/2000/svg">
<g clip-path="url(#clip0_22_47)">
<mask id="mask0_22_47" style="mask-type:alpha" maskUnits="userSpaceOnUse" x="5" y="21" width="714" height="692">
<path d="M612.816 99.0532H609.816V105.053H612.816V99.0532ZM699.929 99.0532L612.816 99.0532V105.053L699.929 105.053V99.0532Z" fill="white"/>
<circle cx="601.908" cy="101.908" r="7.90794" transform="rotate(-180 601.908 101.908)" stroke="white" stroke-width="6"/>
<path d="M549 127H546V133H549V127ZM700 127L549 127V133L700 133V127Z" fill="white"/>
<circle cx="537.908" cy="129.908" r="7.90794" transform="rotate(-180 537.908 129.908)" stroke="white" stroke-width="6"/>
<circle cx="478.908" cy="201.461" r="7.90794" transform="rotate(-180 478.908 201.461)" stroke="white" stroke-width="6"/>
<path d="M484.213 192.577L482.091 194.698L486.334 198.941L488.455 196.819L484.213 192.577ZM525.032 156V153H523.79L522.911 153.879L525.032 156ZM488.455 196.819L527.153 158.121L522.911 153.879L484.213 192.577L488.455 196.819ZM525.032 159H700V153H525.032V159Z" fill="white"/>
<path d="M589 198H586V204H589V198ZM700 198H589V204H700V198Z" fill="white"/>
<circle cx="577.908" cy="200.908" r="7.90794" transform="rotate(-180 577.908 200.908)" stroke="white" stroke-width="6"/>
<path d="M641 220H638V226H641V220ZM700 220H641V226H700V220Z" fill="white"/>
<circle cx="629.908" cy="222.908" r="7.90794" transform="rotate(-180 629.908 222.908)" stroke="white" stroke-width="6"/>
<circle cx="10.9079" cy="10.9079" r="7.90794" transform="matrix(-1 0 0 1 586.816 341)" stroke="white" stroke-width="6"/>
<path d="M580.899 361.142L578.758 359.041L582.959 354.758L585.101 356.858L580.899 361.142ZM605.429 381V384H604.204L603.329 383.142L605.429 381ZM585.101 356.858L607.53 378.858L603.329 383.142L580.899 361.142L585.101 356.858ZM605.429 378H708V384H605.429V378Z" fill="white"/>
<path d="M548 401H545V407H548V401ZM708 401H548V407H708V401Z" fill="white"/>
<circle cx="536.908" cy="403.908" r="7.90794" transform="rotate(-180 536.908 403.908)" stroke="white" stroke-width="6"/>
<path d="M611 427H608V433H611V427ZM708 427H611V433H708V427Z" fill="white"/>
<circle cx="599.908" cy="429.908" r="7.90794" transform="rotate(-180 599.908 429.908)" stroke="white" stroke-width="6"/>
<path d="M559 544L556 544L556 550L559 550L559 544ZM701 544L559 544L559 550L701 550L701 544Z" fill="white"/>
<circle cx="547.908" cy="546.908" r="7.90794" transform="rotate(-180 547.908 546.908)" stroke="white" stroke-width="6"/>
<circle cx="10.9079" cy="10.9079" r="7.90794" transform="matrix(-1 0 0 1 487.816 551)" stroke="white" stroke-width="6"/>
<path d="M481.899 571.142L479.758 569.041L483.959 564.758L486.101 566.858L481.899 571.142ZM506.429 591V594H505.204L504.329 593.142L506.429 591ZM486.101 566.858L508.53 588.858L504.329 593.142L481.899 571.142L486.101 566.858ZM506.429 588H699.5V594H506.429V588Z" fill="white"/>
<path d="M439 611H436V617H439V611ZM701 611H439V617H701V611Z" fill="white"/>
<circle cx="427.908" cy="613.908" r="7.90794" transform="rotate(-180 427.908 613.908)" stroke="white" stroke-width="6"/>
<circle cx="337.908" cy="682.461" r="7.90794" transform="rotate(-180 337.908 682.461)" stroke="white" stroke-width="6"/>
<path d="M343.213 673.577L341.092 675.698L345.334 679.941L347.455 677.819L343.213 673.577ZM384.032 637V634H382.79L381.911 634.879L384.032 637ZM347.455 677.819L386.154 639.121L381.911 634.879L343.213 673.577L347.455 677.819ZM384.032 640H701V634H384.032V640Z" fill="white"/>
<path d="M511 679H508V685H511V679ZM701 679H511V685H701V679Z" fill="white"/>
<circle cx="499.908" cy="681.908" r="7.90794" transform="rotate(-180 499.908 681.908)" stroke="white" stroke-width="6"/>
<path d="M92.9998 679L89.9998 679L89.9998 685L92.9998 685L92.9998 679ZM231 679L92.9998 679L92.9998 685L231 685L231 679Z" fill="white"/>
<circle cx="81.9079" cy="681.908" r="7.90794" transform="rotate(-180 81.9079 681.908)" stroke="white" stroke-width="6"/>
<circle cx="239.908" cy="681.908" r="7.90794" transform="rotate(-180 239.908 681.908)" stroke="white" stroke-width="6"/>
<circle cx="10.9079" cy="10.9079" r="7.90794" transform="matrix(-1 0 0 1 38.8159 660)" stroke="white" stroke-width="6"/>
<path d="M30.8998 680.142L28.7576 678.042L32.9579 673.758L35.1002 675.858L30.8998 680.142ZM65.6414 710V713H64.4161L63.5412 712.142L65.6414 710ZM35.1002 675.858L67.7415 707.858L63.5412 712.142L30.8998 680.142L35.1002 675.858ZM65.6414 707H718.5V713H65.6414V707Z" fill="white"/>
<path d="M602 50C598.837 50 596.25 47.39 596.25 44.2C596.25 41.01 598.837 38.4 602 38.4C605.163 38.4 607.75 41.01 607.75 44.2C607.75 47.39 605.163 50 602 50ZM619.25 44.78C619.25 34.253 611.631 26.8 602 26.8C592.369 26.8 584.75 34.253 584.75 44.78C584.75 51.566 590.356 60.556 602 71.286C613.644 60.556 619.25 51.566 619.25 44.78ZM602 21C614.075 21 625 30.338 625 44.78C625 54.408 617.324 65.805 602 79C586.676 65.805 579 54.408 579 44.78C579 30.338 589.925 21 602 21Z" fill="white"/>
<path d="M477 148C473.837 148 471.25 145.39 471.25 142.2C471.25 139.01 473.837 136.4 477 136.4C480.163 136.4 482.75 139.01 482.75 142.2C482.75 145.39 480.163 148 477 148ZM494.25 142.78C494.25 132.253 486.631 124.8 477 124.8C467.369 124.8 459.75 132.253 459.75 142.78C459.75 149.566 465.356 158.556 477 169.286C488.644 158.556 494.25 149.566 494.25 142.78ZM477 119C489.075 119 500 128.338 500 142.78C500 152.408 492.324 163.805 477 177C461.676 163.805 454 152.408 454 142.78C454 128.338 464.925 119 477 119Z" fill="white"/>
<path d="M575 299C571.837 299 569.25 296.39 569.25 293.2C569.25 290.01 571.837 287.4 575 287.4C578.163 287.4 580.75 290.01 580.75 293.2C580.75 296.39 578.163 299 575 299ZM592.25 293.78C592.25 283.253 584.631 275.8 575 275.8C565.369 275.8 557.75 283.253 557.75 293.78C557.75 300.566 563.356 309.556 575 320.286C586.644 309.556 592.25 300.566 592.25 293.78ZM575 270C587.075 270 598 279.338 598 293.78C598 303.408 590.324 314.805 575 328C559.676 314.805 552 303.408 552 293.78C552 279.338 562.925 270 575 270Z" fill="white"/>
<path d="M547 495C543.837 495 541.25 492.39 541.25 489.2C541.25 486.01 543.837 483.4 547 483.4C550.163 483.4 552.75 486.01 552.75 489.2C552.75 492.39 550.163 495 547 495ZM564.25 489.78C564.25 479.253 556.631 471.8 547 471.8C537.369 471.8 529.75 479.253 529.75 489.78C529.75 496.566 535.356 505.556 547 516.286C558.644 505.556 564.25 496.566 564.25 489.78ZM547 466C559.075 466 570 475.338 570 489.78C570 499.408 562.324 510.805 547 524C531.676 510.805 524 499.408 524 489.78C524 475.338 534.925 466 547 466Z" fill="white"/>
<path d="M426 562C422.837 562 420.25 559.39 420.25 556.2C420.25 553.01 422.837 550.4 426 550.4C429.163 550.4 431.75 553.01 431.75 556.2C431.75 559.39 429.163 562 426 562ZM443.25 556.78C443.25 546.253 435.631 538.8 426 538.8C416.369 538.8 408.75 546.253 408.75 556.78C408.75 563.566 414.356 572.556 426 583.286C437.644 572.556 443.25 563.566 443.25 556.78ZM426 533C438.075 533 449 542.338 449 556.78C449 566.408 441.324 577.805 426 591C410.676 577.805 403 566.408 403 556.78C403 542.338 413.925 533 426 533Z" fill="white"/>
<path d="M28 620C24.8375 620 22.25 617.39 22.25 614.2C22.25 611.01 24.8375 608.4 28 608.4C31.1625 608.4 33.75 611.01 33.75 614.2C33.75 617.39 31.1625 620 28 620ZM45.25 614.78C45.25 604.253 37.6312 596.8 28 596.8C18.3688 596.8 10.75 604.253 10.75 614.78C10.75 621.566 16.3562 630.556 28 641.286C39.6437 630.556 45.25 621.566 45.25 614.78ZM28 591C40.075 591 51 600.338 51 614.78C51 624.408 43.3237 635.805 28 649C12.6763 635.805 5 624.408 5 614.78C5 600.338 15.925 591 28 591Z" fill="white"/>
</mask>
<g mask="url(#mask0_22_47)">
<rect width="700" height="749" fill="url(#paint0_linear_22_47)"/>
</g>
</g>
<defs>
<linearGradient id="paint0_linear_22_47" x1="1.43349e-05" y1="374.5" x2="351.378" y2="876.066" gradientUnits="userSpaceOnUse">
<stop stop-color="#1BDEFC"/>
<stop offset="1" stop-color="#F810B4"/>
</linearGradient>
<clipPath id="clip0_22_47">
<rect width="700" height="749" fill="white"/>
</clipPath>
</defs>
</svg>
