<svg width="450" height="450" viewBox="0 0 450 450" fill="none" xmlns="http://www.w3.org/2000/svg">
<mask id="mask0_78_198" style="mask-type:alpha" maskUnits="userSpaceOnUse" x="44" y="8" width="385" height="443">
<path d="M150.591 397.097C157.984 389.39 181.421 375.132 216.021 379.757M230.992 379.757C234.134 380.107 243.524 379.231 255.944 372.925M266.48 368.196L310.284 323.005M106.271 416.062L109.082 419.857M68.8973 360.116L88.7001 349.762M77.7744 365.94L88.7001 360.116M95.5548 346.507C105.772 341.349 116.697 343.938 155.62 312.013C172.825 297.902 191.817 309.001 220.331 311.774C221.337 311.872 222.352 311.953 223.378 312.013C232.528 312.556 249.16 315.719 239.342 325.293C227.903 331.579 199.356 328 183.152 329.94C188.251 333.87 194.971 336.445 228.141 332.609C265.269 315.224 268.414 313.96 283.095 300.321C297.775 286.683 304.887 283.478 314.799 284.066C325.152 284.68 318.827 293.485 306.542 304.614C287.597 321.776 280.778 336.161 235.177 362.765C232.305 364.441 228.91 365.198 225.542 365.038C152.341 361.582 140.066 380.552 119.664 398.72L95.5548 346.507ZM59 355.221L90.6944 338.965L130.385 421.846L101.93 447L59 355.221ZM116.851 418.141C116.534 422.93 112.181 426.57 107.127 426.27C102.074 425.97 98.2335 421.845 98.5499 417.055C98.8662 412.266 103.219 408.627 108.273 408.927C113.327 409.226 117.167 413.352 116.851 418.141Z" stroke="black" stroke-width="4"/>
<path d="M216.081 218L181 218C175.477 218 171 222.477 171 228L171 254.993M216.081 218L242.215 218M216.081 218V254.993M242.215 218L277.949 218C283.472 218 287.949 222.477 287.949 228V254.993M242.215 218V254.993M171 254.993H216.081M171 254.993L171 278.358M216.081 254.993V278.358M242.215 254.993H287.949M242.215 254.993V278.358M287.949 254.993V278.358M171 307.563L171 278.358M171 278.358H216.081M216.081 278.358V310.808M242.215 278.358V316M242.215 278.358H287.949M287.949 278.358V297.828M216.356 253.828L241.642 221.688M216.356 272.269L241.642 241.71M216.356 290.71L241.642 259.624M216.356 308.624L241.642 278.591M216.356 235.387L229.525 218.527M227.945 311.785L241.642 296.505M175.265 255.409L186.328 278.591M186.855 255.409L197.918 278.065M198.444 255.409L210.034 278.591M208.98 255.409L216.356 268.581M245.856 255.409L257.973 278.591M256.919 255.409L269.035 279.118M267.455 255.409L280.098 278.591M277.991 255.409L288 273.323M242.169 269.634L247.963 278.591M171.051 269.634L175.265 278.065M280 285.861V299M210.562 227H185.312C180.578 227 179 229.102 179 234.358M179 240.664V249.599" stroke="black" stroke-width="4"/>
<circle cx="223.939" cy="100.48" r="43.6521" stroke="black" stroke-width="4"/>
<circle cx="223.498" cy="100.921" r="52.0297" stroke="black" stroke-width="4"/>
<circle cx="223.939" cy="100.48" r="47.6521" stroke="black" stroke-width="8" stroke-dasharray="4 8"/>
<path d="M194.006 117.054C190.111 109.72 189 101.224 190.88 93.1353C192.76 85.0464 197.503 77.9108 204.234 73.0463M248.699 76.6014C245.041 72.9434 240.605 70.1577 235.721 68.4518M233.281 134.141C238.35 132.783 243.042 130.283 246.996 126.831C250.95 123.38 254.062 119.07 256.093 114.23C258.124 109.391 259.02 104.151 258.714 98.9114C258.407 93.6719 256.906 88.5722 254.324 84.0027" stroke="black" stroke-width="4"/>
<path d="M222.175 103.863C216.382 102.318 208.507 98.1311 208.507 89.7534C208.507 86.1534 211.916 78.634 217.766 76.5255C225.107 73.88 234.08 75.6437 237.608 82.2576L234.08 86.226C229.23 81.3758 216.443 80.4939 217.766 91.5172C218.212 95.2319 225.89 96.826 231.876 98.572C241.576 101.401 242.899 108.713 242.458 113.123C242.458 118.855 236.092 126.729 225.703 128.114C219.089 128.996 212.034 126.792 206.743 120.619L210.711 114.886C218.648 123.264 233.199 120.916 234.08 113.123C234.962 105.33 228.789 105.627 222.175 103.863Z" stroke="black" stroke-width="4"/>
<path d="M217.766 63.8824V77.5513M217.766 102.684V119.44M217.766 128.699V138.4M227.467 63.8824V75.3466M227.467 83.2834V96.9522M227.467 105.771V119.44M227.467 128.699V138.4" stroke="black" stroke-width="4"/>
<circle cx="112.883" cy="206.536" r="23.3618" stroke="black" stroke-width="4"/>
<circle cx="112.791" cy="205.69" r="33.8198" stroke="black" stroke-width="4"/>
<circle cx="112.883" cy="205.783" r="29.3618" stroke="black" stroke-width="12" stroke-dasharray="4 16"/>
<path d="M119.773 220.815C116.301 222.532 112.324 222.934 108.578 221.947C104.833 220.961 101.57 218.652 99.3936 215.448M101.656 194.764C99.9008 196.42 98.5416 198.451 97.6798 200.704M128.274 202.736C127.71 200.354 126.608 198.132 125.053 196.242C123.497 194.351 121.53 192.842 119.301 191.829C117.072 190.816 114.641 190.327 112.194 190.399C109.747 190.47 107.349 191.101 105.183 192.243" stroke="black" stroke-width="4"/>
<circle cx="332.817" cy="157.305" r="23.3618" transform="rotate(107.329 332.817 157.305)" stroke="black" stroke-width="4"/>
<circle cx="333.652" cy="157.469" r="33.8198" transform="rotate(107.329 333.652 157.469)" stroke="black" stroke-width="4"/>
<circle cx="333.536" cy="157.529" r="29.3618" transform="rotate(107.329 333.536 157.529)" stroke="black" stroke-width="12" stroke-dasharray="4 16"/>
<path d="M317.134 159.629C316.53 155.803 317.33 151.887 319.388 148.605C321.445 145.323 324.621 142.896 328.328 141.773M347.399 150.094C346.341 147.925 343.454 144.146 340.826 143.094M322.432 169.898C323.914 170.881 327.092 172.637 330.315 173.051C333.946 173.518 337.634 172.551 339.019 171.988C341.287 171.067 343.314 169.638 344.945 167.812C346.576 165.986 347.767 163.811 348.427 161.454C349.088 159.097 349.2 156.619 348.755 154.212" stroke="black" stroke-width="4"/>
<path d="M180.928 210.761L140.461 146.644L127.931 127.724M277.104 146.644L303.908 104.074M372.755 48.3654L399.033 10M169.892 154.002L152.023 127.724M192.49 48.3654L175.147 10M275.528 69.3875L314.419 11.5767M160.432 80.4241L140.461 48.3654M108.402 55.1976L78.9709 10M94.5203 77.2708L67.4088 37.3288M284.988 210.761L299.474 189.214M349.997 119.315L411.12 28.3944M198.271 200.776L188.812 186.06M101.921 165.429L88.5842 147.502M62.7094 107.191L46.5792 86.0706M383 149.5L419.5 96M102.045 87.4192L91.1999 91.5921C86.8957 93.2482 86.6595 99.2492 90.8202 101.239L101.304 106.251C103.04 107.081 104.183 108.792 104.285 110.713L104.902 122.317C105.147 126.923 110.782 129.002 113.959 125.659L121.966 117.238C123.292 115.843 125.273 115.285 127.131 115.781L138.358 118.78C142.814 119.97 146.532 115.254 144.335 111.199L138.8 100.982C137.884 99.2904 137.965 97.2335 139.011 95.6194L145.332 85.8687C147.841 81.9989 144.505 77.0051 139.97 77.8414L128.542 79.9485C126.65 80.2973 124.719 79.5847 123.507 78.0907L116.187 69.0656C113.282 65.4838 107.502 67.1135 106.895 71.6854L105.368 83.205C105.115 85.112 103.841 86.7284 102.045 87.4192ZM112.219 93.8826L104.497 95.2861C102.286 95.688 102.163 98.8124 104.336 99.3868L111.924 101.393C112.949 101.664 113.612 102.656 113.47 103.707L112.418 111.485C112.117 113.712 115.051 114.794 116.268 112.905L120.521 106.309C121.096 105.418 122.244 105.094 123.2 105.554L130.272 108.957C132.297 109.932 134.233 107.476 132.813 105.735L127.853 99.6515C127.183 98.8296 127.23 97.6374 127.963 96.8708L133.385 91.1964C134.938 89.5716 133.201 86.9716 131.105 87.784L123.787 90.621C122.799 91.0043 121.679 90.5912 121.177 89.6576L117.455 82.7472C116.39 80.7684 113.381 81.6169 113.506 83.8608L113.942 91.6973C114.001 92.756 113.263 93.693 112.219 93.8826ZM250.906 170.834L246.728 170.167C242.174 169.44 238.958 174.512 241.559 178.32L243.945 181.815C245.03 183.403 245.16 185.458 244.284 187.171L242.358 190.938C240.259 195.045 244.089 199.67 248.515 198.374L252.576 197.184C254.422 196.644 256.416 197.155 257.774 198.517L260.762 201.513C264.019 204.778 269.602 202.565 269.737 197.955L269.86 193.725C269.916 191.803 271.019 190.064 272.734 189.193L276.507 187.277C280.618 185.189 280.239 179.195 275.896 177.643L271.912 176.218C270.1 175.57 268.788 173.985 268.489 172.085L267.833 167.904C267.117 163.348 261.3 161.857 258.481 165.508L255.895 168.857C254.719 170.379 252.806 171.138 250.906 170.834ZM254.802 177.666C255.907 177.843 257.019 177.402 257.703 176.517C259.341 174.395 262.723 175.261 263.139 177.91C263.313 179.015 264.076 179.936 265.129 180.313C267.653 181.216 267.874 184.7 265.484 185.914C264.486 186.42 263.846 187.431 263.813 188.549C263.735 191.229 260.489 192.515 258.596 190.617C257.806 189.825 256.647 189.528 255.574 189.842C253.001 190.596 250.774 187.907 251.995 185.52C252.504 184.524 252.428 183.33 251.797 182.406C250.285 180.192 252.155 177.244 254.802 177.666ZM327.5 44.2628L311.455 39.6128C307.025 38.3291 303.208 42.9659 305.319 47.0663L312.966 61.919C313.846 63.6293 313.722 65.684 312.642 67.2757L303.261 81.0989C300.672 84.915 303.902 89.9779 308.454 89.2373L324.943 86.5547C326.841 86.2458 328.757 86.9989 329.937 88.5181L340.185 101.711C343.014 105.353 348.827 103.846 349.53 99.2876L352.074 82.7769C352.367 80.8757 353.675 79.2864 355.484 78.6336L371.198 72.9643C375.537 71.3991 375.899 65.4044 371.781 63.3279L356.865 55.8064C355.147 54.9403 354.04 53.205 353.978 51.2823L353.442 34.5854C353.294 29.9759 347.705 27.7787 344.458 31.0534L332.695 42.9155C331.34 44.2814 329.348 44.7982 327.5 44.2628ZM330.547 54.106L322.788 50.7011C319.952 49.4564 317.208 52.6192 318.841 55.251L323.309 62.4509C324.045 63.6378 323.913 65.1678 322.984 66.2108L317.348 72.5377C315.288 74.8505 317.448 78.437 320.455 77.6972L328.683 75.6736C330.04 75.3399 331.454 75.9385 332.159 77.1444L336.434 84.4596C337.997 87.1337 342.076 86.1874 342.302 83.0984L342.92 74.6479C343.022 73.2548 344.028 72.0947 345.393 71.797L353.671 69.9911C356.697 69.331 357.058 65.1597 354.189 63.9903L346.344 60.7913C345.05 60.2639 344.258 58.9484 344.396 57.5585L345.237 49.1272C345.544 46.0452 341.689 44.4134 339.69 46.7797L334.223 53.2531C333.322 54.3203 331.826 54.6674 330.547 54.106ZM180.399 167.255L176.721 167.81C175.033 168.064 174.42 170.18 175.709 171.298L178.518 173.735C179.044 174.191 179.295 174.887 179.181 175.573L178.572 179.243C178.293 180.926 180.115 182.164 181.577 181.283L184.763 179.364C185.359 179.005 186.098 178.982 186.716 179.302L190.017 181.015C191.532 181.801 193.272 180.45 192.887 178.788L192.046 175.165C191.889 174.487 192.095 173.776 192.591 173.288L195.24 170.677C196.456 169.48 195.709 167.407 194.009 167.26L190.303 166.94C189.61 166.88 188.998 166.464 188.687 165.842L187.022 162.516C186.259 160.99 184.057 161.06 183.392 162.631L181.942 166.057C181.671 166.697 181.086 167.151 180.399 167.255ZM271.867 27.6739L268.402 26.3201C266.813 25.699 265.226 27.2261 265.785 28.8385L267.004 32.3525C267.232 33.0096 267.102 33.738 266.661 34.2759L264.303 37.1524C263.221 38.4722 264.183 40.4537 265.89 40.4199L269.608 40.3464C270.304 40.3326 270.956 40.6812 271.332 41.2668L273.339 44.3983C274.26 45.8351 276.441 45.5326 276.936 43.8994L278.016 40.34C278.217 39.6743 278.751 39.1613 279.424 38.9853L283.022 38.0442C284.673 37.6124 285.06 35.444 283.659 34.4684L280.608 32.3421C280.037 31.9444 279.714 31.2788 279.754 30.5844L279.971 26.8713C280.071 25.1676 278.128 24.13 276.767 25.1602L273.802 27.4055C273.248 27.8254 272.515 27.927 271.867 27.6739ZM69.3826 124.472L65.8893 125.749C64.2864 126.335 64.1066 128.53 65.5929 129.369L68.832 131.198C69.4377 131.539 69.8223 132.172 69.8475 132.867L69.9826 136.584C70.0446 138.289 72.0768 139.138 73.3339 137.984L76.0737 135.469C76.586 134.998 77.306 134.828 77.9749 135.019L81.5517 136.039C83.1929 136.507 84.6286 134.836 83.9193 133.284L82.3735 129.901C82.0844 129.269 82.1448 128.531 82.533 127.954L84.6085 124.867C85.5608 123.451 84.4159 121.57 82.7204 121.765L79.0253 122.189C78.3343 122.269 77.6517 121.983 77.2227 121.436L74.9286 118.508C73.876 117.165 71.7327 117.672 71.3941 119.345L70.6562 122.99C70.5182 123.672 70.0359 124.233 69.3826 124.472ZM377.83 101.857L374.615 99.9864C373.14 99.1282 371.337 100.393 371.642 102.072L372.306 105.732C372.43 106.416 372.19 107.116 371.671 107.58L368.899 110.059C367.627 111.197 368.272 113.303 369.964 113.532L373.649 114.031C374.339 114.125 374.93 114.569 375.211 115.206L376.712 118.609C377.401 120.17 379.603 120.207 380.344 118.669L381.958 115.318C382.26 114.691 382.865 114.266 383.557 114.196L387.258 113.82C388.955 113.647 389.671 111.564 388.437 110.384L385.749 107.814C385.246 107.333 385.029 106.626 385.176 105.946L385.962 102.31C386.322 100.642 384.562 99.3181 383.059 100.127L379.784 101.889C379.171 102.219 378.431 102.207 377.83 101.857ZM153.152 29.7431L149.48 30.335C147.795 30.6066 147.202 32.728 148.503 33.8334L151.337 36.2424C151.866 36.6929 152.124 37.3863 152.017 38.0736L151.446 41.7489C151.183 43.4352 153.018 44.6543 154.471 43.7592L157.638 41.8084C158.23 41.4436 158.969 41.4127 159.59 41.7267L162.908 43.4063C164.431 44.1769 166.157 42.8089 165.755 41.1503L164.878 37.5357C164.714 36.8597 164.913 36.1471 165.404 35.654L168.027 33.0167C169.23 31.8066 168.463 29.7421 166.761 29.6122L163.052 29.329C162.359 29.276 161.743 28.8666 161.425 28.2477L159.727 24.9383C158.948 23.4197 156.748 23.5118 156.098 25.09L154.683 28.5297C154.418 29.1729 153.838 29.6324 153.152 29.7431Z" stroke="black" stroke-width="4"/>
<path d="M383.269 214.844L386.684 220.375M383.269 214.844L381.308 223.693M383.269 214.844L377.491 205.483M376.441 203.782L377.491 205.483M377.491 205.483L370.97 230.075M355.351 216.8L362.18 227.862M362.18 227.862L365.594 233.393M362.18 227.862L366.93 209.653M414.07 180.553L318.135 239.774C315.851 241.183 315.176 244.231 316.626 246.581L321.879 255.09C323.33 257.44 326.357 258.202 328.641 256.792L424.576 197.571C426.86 196.161 427.535 193.114 426.085 190.764L420.832 182.255C419.381 179.905 416.354 179.143 414.07 180.553Z" stroke="black" stroke-width="4"/>
<path d="M376.567 227.208C377.224 227.222 377.854 227.246 378.458 227.281M376.567 227.208C375.694 228.245 374.662 229.712 373.672 231.492M376.567 227.208C382.673 225.119 390.941 222.621 398.881 221.477M376.567 227.208C386.218 224.227 392.681 225.574 397.055 227.493M376.567 227.208C371.262 232.606 368.575 237.161 366.938 241.523M376.567 227.208C369.731 232.537 362.083 240.034 357.516 250.72M367.025 266.591C370.577 265.592 372.636 263.715 371.131 252.304C370.334 246.251 369.817 240.817 371.57 236.063M367.025 266.591C366.085 266.033 364.656 263.798 364.239 260.084M367.025 266.591C365.031 267.151 360.074 269.338 358.341 268.477M385.974 228.487C393.848 230.879 394.633 235.991 402.727 238.676C405.762 239.683 411.717 240.749 415.994 235.24M385.974 228.487C386.189 230.497 383.157 234.892 383.157 234.892M385.974 228.487C383.993 227.886 381.565 227.456 378.458 227.281M383.157 234.892L378.458 227.281M383.157 234.892C383.157 234.892 380.511 236.983 377.748 238.094M371.57 236.063C371.154 237.53 371.289 239.75 376.209 238.593C376.715 238.474 377.233 238.301 377.748 238.094M371.57 236.063C372.186 234.392 372.917 232.851 373.672 231.492M415.994 235.24C417.253 233.619 418.366 231.427 419.217 228.496C420.455 224.233 418.146 222.032 413.952 221.17M415.994 235.24C415.795 234.06 413.137 234.6 410.749 233.724M413.952 221.17L410.749 233.724M413.952 221.17C412.213 220.812 408.155 220.809 405.886 220.86M410.749 233.724C410.089 233.481 407.88 232.951 403.586 231.094M405.886 220.86L403.586 231.094M405.886 220.86C403.626 220.911 401.268 221.133 398.881 221.477M403.586 231.094C402.195 230.493 400.147 228.85 397.055 227.493M364.239 260.084L358.341 268.477M364.239 260.084C363.927 257.302 363.828 253.807 364.677 249.825M358.341 268.477C356.296 267.46 354.762 265.471 354.52 262.558M364.677 249.825L354.52 262.558M364.677 249.825C365.275 247.023 365.892 244.313 366.938 241.523M354.52 262.558C354.428 261.449 354.523 260.205 354.848 258.83C355.532 255.94 356.438 253.241 357.516 250.72M377.748 238.094L373.672 231.492M398.881 221.477L397.055 227.493M366.938 241.523L357.516 250.72" stroke="black" stroke-width="4"/>
</mask>
<g mask="url(#mask0_78_198)">
<rect width="450" height="450" fill="url(#paint0_linear_78_198)"/>
</g>
<defs>
<linearGradient id="paint0_linear_78_198" x1="101" y1="89.5" x2="371.5" y2="386.5" gradientUnits="userSpaceOnUse">
<stop stop-color="#1BDEFC"/>
<stop offset="1" stop-color="#F810B4"/>
</linearGradient>
</defs>
</svg>
